<?xml version="1.0" encoding="UTF-8" standalone="no"?>
<!-- Created with Inkscape (http://www.inkscape.org/) -->

<svg
   width="188.5558mm"
   height="50.861572mm"
   viewBox="0 0 188.5558 50.861572"
   version="1.1"
   id="svg1"
   inkscape:version="1.4.3 (0d15f75, 2025-12-25)"
   sodipodi:docname="logo_legmio.svg"
   inkscape:export-filename="kinmio_logo_brouillon.png"
   inkscape:export-xdpi="96"
   inkscape:export-ydpi="96"
   xml:space="preserve"
   xmlns:inkscape="http://www.inkscape.org/namespaces/inkscape"
   xmlns:sodipodi="http://sodipodi.sourceforge.net/DTD/sodipodi-0.dtd"
   xmlns="http://www.w3.org/2000/svg"
   xmlns:svg="http://www.w3.org/2000/svg"><sodipodi:namedview
     id="namedview1"
     pagecolor="#ffffff"
     bordercolor="#000000"
     borderopacity="0.25"
     inkscape:showpageshadow="2"
     inkscape:pageopacity="0.0"
     inkscape:pagecheckerboard="0"
     inkscape:deskcolor="#d1d1d1"
     inkscape:document-units="mm"
     inkscape:zoom="0.96379902"
     inkscape:cx="334.61333"
     inkscape:cy="174.82898"
     inkscape:window-width="1920"
     inkscape:window-height="1111"
     inkscape:window-x="-9"
     inkscape:window-y="-9"
     inkscape:window-maximized="1"
     inkscape:current-layer="g6-2-8-4-5-2"
     inkscape:pageshadow="2"
     showgrid="false"
     showguides="false"
     inkscape:snap-grids="true"
     inkscape:export-bgcolor="#ffffffff" /><defs
     id="defs1"><linearGradient
       id="swatch6"
       inkscape:swatch="solid"><stop
         style="stop-color:#0d0d29;stop-opacity:1;"
         offset="0"
         id="stop6" /></linearGradient></defs><g
     inkscape:label="Layer 1"
     inkscape:groupmode="layer"
     id="layer1"
     transform="translate(-8.3861685,-205.72847)"><g
       id="g1-3-6-9-3-0-9-8"
       transform="matrix(1.2356192,0,0,1.2356192,-82.388478,-100.66516)" /><g
       id="g1-3-8-9-52"
       transform="matrix(1.1809213,0.25101257,-0.25101257,1.1809213,-75.635694,145.74277)"><g
         id="path8-1-3-2-5-7-4-0-6-6-2-7-4-3-4-8-9-5-6-9-0-5-0-7-7-9-5-5-5-6-6-7-0-1-7"
         style="opacity:1"
         transform="translate(-0.42872648,0.09112863)" /></g><g
       id="g1-3-6-9-3-0-9-7-8-0"
       transform="matrix(1.2356192,0,0,1.2356192,-131.14062,-400.23021)" /><g
       id="g1-3-6-9-3-0-9-7-8-4"
       transform="matrix(1.2356192,0,0,1.2356192,-44.35729,-358.42604)" /><g
       id="g1-3-6-9-3-0-9-7-4-2-1"
       transform="matrix(3.2850145,0,0,3.2850145,-447.88552,-386.76161)"
       style="fill:#ffffff" /><g
       id="g1-3-8-9-52-8-0"
       transform="matrix(1.1761003,0.27270984,-0.27270984,1.1761003,211.76824,514.45606)"
       style="fill:#ffffff;fill-opacity:1"><g
         id="path8-1-3-2-5-7-4-0-6-6-2-7-4-3-4-8-9-5-6-9-0-5-0-7-7-9-5-5-5-6-6-7-0-1-7-1-6"
         style="opacity:1;fill:#ffffff;fill-opacity:1"
         transform="rotate(-0.45943951,-342.25041,-20.925899)" /></g><g
       id="g1-3-8-9-52-8-1-5"
       transform="matrix(1.0968107,0.5045679,-0.5045679,1.0968107,234.95335,609.30124)"
       style="stroke:#244c5a;stroke-width:0.502773;stroke-dasharray:none;stroke-opacity:1" /><g
       id="g8-9-4"
       transform="translate(-1712.0422,-1386.6275)"><path
         id="text8-8-9-1-3-1-0-0-4-8-4-2-4-8-2-4-5-1-7-0-1-4-1-2-9-2-6-7-1-6-1-5-8-9-9-7-2-5-0-1-0"
         style="font-size:74.0297px;font-family:Verdana;-inkscape-font-specification:Verdana;text-align:center;text-anchor:middle;fill:#ffffff;fill-opacity:1;stroke-width:1.35963;stroke-linecap:round;stroke-linejoin:round;paint-order:stroke markers fill"
         d="m 1796.0562,1609.2073 c -1.5341,0 -2.8709,0.2123 -4.0106,0.6377 -1.0239,0.3822 -1.902,0.9271 -2.634,1.634 -0.083,0.08 -0.1633,0.1613 -0.2423,0.2454 -0.8877,0.9428 -1.529,2.0815 -1.9235,3.4153 -0.784,2.7263 -0.7683,5.3174 0.01,8.0171 0.3945,1.3338 1.0358,2.472 1.9234,3.4148 0.079,0.084 0.16,0.1661 0.2428,0.246 v 5e-4 c 0.732,0.7069 1.6096,1.2513 2.6335,1.6335 1.1397,0.4254 2.4768,0.6377 4.0111,0.6377 1.5342,0 2.8709,-0.2123 4.0106,-0.6377 1.0239,-0.3822 1.9019,-0.9266 2.6339,-1.6335 v -5e-4 c 0.083,-0.08 0.1638,-0.1618 0.2429,-0.246 0.6992,-0.7426 1.2455,-1.6064 1.6387,-2.5916 h -3.6318 c -0.4766,0.707 -1.111,1.2427 -1.9028,1.6082 -0.8329,0.3795 -1.8299,0.5695 -2.9915,0.5695 -1.1617,0 -2.1588,-0.19 -2.9916,-0.5695 -0.822,-0.3794 -1.4742,-0.9424 -1.9564,-1.6898 -0.4274,-0.6554 -0.7346,-1.3857 -0.9209,-2.1906 -0.049,-0.2257 -0.091,-0.584 -0.123,-0.9829 h 6.7634 c 10e-4,10e-5 0.011,10e-5 0.011,0 h 4.8302 1.9771 c 1.1525,0 1.7902,-0.7125 1.8015,-1.7064 -0.033,-1.2194 -0.2305,-2.6346 -0.5891,-3.8788 -0.3945,-1.3338 -1.0353,-2.4725 -1.9229,-3.4153 -0.079,-0.084 -0.1601,-0.1655 -0.2429,-0.2455 -0.732,-0.7069 -1.61,-1.2518 -2.6339,-1.634 -1.1397,-0.4254 -2.4768,-0.6377 -4.0111,-0.6377 z m 0,2.9316 c 1.1617,0 2.1588,0.19 2.9917,0.5694 0.8219,0.3794 1.4742,0.9426 1.9564,1.6899 0.4274,0.6554 0.7346,1.3852 0.9209,2.19 0.043,0.1972 0.1067,0.7629 0.1131,0.8821 h -0.3607 -4.8307 -6.7671 c 0.028,-0.3648 0.065,-0.6849 0.1075,-0.8821 0.1863,-0.8048 0.4935,-1.5346 0.9209,-2.19 0.4822,-0.7473 1.1346,-1.3105 1.9565,-1.6899 0.8329,-0.3794 1.8299,-0.5694 2.9915,-0.5694 z"
         sodipodi:nodetypes="ssscccsccsssccccccscccccccsccsssssccccccccccsc" /><path
         id="text8-8-9-1-3-1-0-0-4-8-4-2-4-8-2-4-5-1-7-0-1-4-1-2-9-2-6-7-1-6-1-5-8-9-9-7-2-9-5-0-6-5"
         style="font-size:74.0297px;font-family:Verdana;-inkscape-font-specification:Verdana;text-align:center;text-anchor:middle;fill:#ffffff;fill-opacity:1;stroke-width:0.858239;stroke-linecap:round;stroke-linejoin:round;paint-order:stroke markers fill"
         d="m 338.45541,686.59169 c -0.96843,0 -1.81257,0.13401 -2.53199,0.40254 -0.64631,0.24125 -1.20053,0.58521 -1.66259,1.03143 -0.0524,0.0505 -0.10315,0.10188 -0.15301,0.15496 -0.56035,0.59513 -0.96509,1.31385 -1.21411,2.15578 -0.49495,1.72093 -0.48504,3.35651 0.006,5.06064 0.24902,0.84194 0.65383,1.5604 1.21411,2.15553 0.0499,0.053 0.10106,0.10484 0.15332,0.15528 v 3.1e-4 c 0.46207,0.44622 1.01603,0.78986 1.66235,1.03112 0.71941,0.26852 1.56343,0.40253 2.53193,0.40253 0.96843,0 1.81219,-0.13401 2.53161,-0.40253 0.49274,-0.18394 0.93214,-0.4276 1.31782,-0.73065 v 0.5291 c 0.0234,0.72339 0.0366,1.43163 -0.0915,2.14208 -0.1176,0.50807 -0.31151,0.96906 -0.5813,1.38277 -0.30438,0.47178 -0.71607,0.82716 -1.23494,1.06665 -0.52569,0.23955 -1.15509,0.35949 -1.88839,0.35949 -0.73323,0 -1.36257,-0.11994 -1.88832,-0.35949 -0.49981,-0.23071 -0.9002,-0.5688 -1.20104,-1.01508 h -2.29257 c 0.2482,0.62189 0.59304,1.16708 1.0344,1.63583 0.0499,0.053 0.10093,0.10479 0.15332,0.15529 v 3.1e-4 c 0.46206,0.44622 1.01628,0.78986 1.6626,1.03112 0.71941,0.26852 1.56318,0.40253 2.53161,0.40253 0.9685,0 1.81258,-0.13401 2.53199,-0.40253 0.64632,-0.24126 1.20022,-0.5849 1.66228,-1.03112 v -3.1e-4 c 0.0524,-0.0505 0.10346,-0.10226 0.15333,-0.15529 0.56028,-0.59512 0.96509,-1.31352 1.21411,-2.15546 0.34919,-0.99431 0.31315,-2.02139 0.31315,-3.05648 v -0.008 -5.686 c 0,-0.07 -0.006,-0.13596 -0.0139,-0.19959 -0.0208,-0.76158 -0.13388,-1.52607 -0.35942,-2.30854 -0.24902,-0.84194 -0.65351,-1.56072 -1.21379,-2.15584 -0.0499,-0.053 -0.10106,-0.10441 -0.15333,-0.15491 -0.46206,-0.44621 -1.01628,-0.79017 -1.66259,-1.03143 -0.71942,-0.26852 -1.56312,-0.40253 -2.53162,-0.40253 z m 0,1.85052 c 0.7333,0 1.36264,0.11999 1.88839,0.35948 0.51881,0.23949 0.93056,0.59494 1.23494,1.06665 0.26979,0.41371 0.4637,0.87438 0.5813,1.3824 0.0697,0.32009 0.12265,1.15326 0.12265,1.66134 0,0.50808 -0.048,1.25021 -0.11741,1.57031 -0.1176,0.50808 -0.31151,0.96906 -0.5813,1.38277 -0.30438,0.47178 -0.71619,0.82717 -1.235,1.06665 -0.52575,0.23956 -1.15509,0.35949 -1.88833,0.35949 -0.7333,0 -1.3627,-0.11993 -1.88838,-0.35949 -0.51888,-0.23948 -0.93056,-0.59487 -1.23494,-1.06665 -0.26979,-0.41371 -0.4637,-0.87469 -0.5813,-1.38277 -0.0697,-0.3201 -0.1171,-1.06223 -0.1171,-1.57031 0,-0.50808 0.0423,-1.34125 0.11186,-1.66134 0.1176,-0.50802 0.31151,-0.96869 0.5813,-1.3824 0.30438,-0.47171 0.71619,-0.82716 1.235,-1.06665 0.52575,-0.23949 1.15509,-0.35948 1.88832,-0.35948 z"
         sodipodi:nodetypes="ssscccsccssscccccscccsccsssccccccsccssssscccscccscccscccsc"
         transform="matrix(1.5842084,0,0,1.5842084,1281.8721,521.32473)" /><path
         id="text8-8-9-1-3-1-0-0-4-8-4-2-4-8-2-4-5-1-7-0-8-5-6-6-4-4-2-4-8-8-8-6-2-6-2-9"
         style="font-size:74.0297px;font-family:Verdana;-inkscape-font-specification:Verdana;text-align:center;text-anchor:middle;fill:#ffca75;fill-opacity:1;stroke-width:0.858239;stroke-linecap:round;stroke-linejoin:round;paint-order:stroke markers fill"
         d="m 369.4486,699.14007 c -0.51363,0 -1.02726,-0.37918 -1.02726,-1.13735 v -2.58242 -1.50366 c 0,0 0,-0.006 0,-0.007 v -6.09289 c 0,-1.51634 2.05459,-1.51634 2.05459,0 v 6.10009 1.50365 2.58243 c 0,0.75823 -0.5137,1.13728 -1.02733,1.13728 z"
         sodipodi:nodetypes="sscccssccss"
         transform="matrix(1.5842084,0,0,1.5842084,1281.8721,521.32473)" /><path
         id="path10-9-0-0-0-4-6-5-7-3-1-7-8-2-1-5-4-5-0-2-2-5-1-6-2-9-8-9-4-2-1-5-7-7-6"
         style="font-size:74.0297px;font-family:Verdana;-inkscape-font-specification:Verdana;text-align:center;text-anchor:middle;fill:#ffca75;fill-opacity:1;stroke-width:0.798847;stroke-linecap:round;stroke-linejoin:round;paint-order:stroke markers fill"
         d="m 360.51196,686.58938 c 0.83903,0 1.57031,0.13433 2.19365,0.40285 0.62334,0.26859 1.14777,0.66399 1.57334,1.18659 0.48548,0.59519 0.836,1.31372 1.05176,2.15565 0.20976,0.84193 0.31479,1.87621 0.31479,3.10288 v 4.56563 c 0,1.51634 -2.05459,1.51634 -2.05459,0 v -4.67452 c 0,0 -0.048,-1.57126 -0.14373,-2.07934 -0.10188,-0.50807 -0.26966,-0.96894 -0.5034,-1.38264 -0.26373,-0.47179 -0.62069,-0.82755 -1.07019,-1.06704 -0.38852,-0.20432 -0.84238,-0.32135 -1.36163,-0.35134 -0.51931,0.0297 -0.97285,0.14702 -1.36137,0.35134 -0.4495,0.23949 -0.80646,0.59525 -1.07019,1.06704 -0.23374,0.4137 -0.40153,0.87457 -0.50341,1.38264 -0.0959,0.50808 -0.14373,2.07934 -0.14373,2.07934 v 0.10889 4.56563 c 0,0.18949 -0.0322,0.3555 -0.0884,0.49759 -0.0423,0.10662 -0.0978,0.19998 -0.16361,0.27995 -0.15365,0.1866 -0.36258,0.30041 -0.58377,0.34188 -0.0316,0.006 -0.0633,0.0107 -0.0953,0.0133 -0.0322,0.006 -0.0641,0.006 -0.0962,0.006 -0.51363,0 -1.02726,-0.37912 -1.02726,-1.13729 v -4.56562 -0.10883 c 0,0 -0.048,-1.57133 -0.14374,-2.07934 -0.10188,-0.50808 -0.26966,-0.969 -0.5034,-1.38271 -0.26373,-0.47178 -0.62069,-0.82748 -1.07019,-1.06703 -0.38852,-0.20427 -0.84238,-0.3213 -1.36169,-0.35134 -0.51925,0.0297 -0.97285,0.14707 -1.36131,0.35134 -0.4495,0.23955 -0.80652,0.59525 -1.07019,1.06703 -0.23374,0.41377 -0.40152,0.87463 -0.50347,1.38271 -0.0959,0.50808 -0.14366,2.07934 -0.14366,2.07934 v 4.67445 c 0,1.5164 -2.0546,1.5164 -2.0546,0 v -4.56562 c 0,-1.22661 0.10473,-2.26089 0.31448,-3.10289 0.21582,-0.84193 0.5666,-1.56046 1.05207,-2.15565 0.42552,-0.52259 0.95001,-0.91799 1.57335,-1.18652 0.62327,-0.26859 1.3543,-0.40291 2.19333,-0.40291 0.8391,0 1.57038,0.13432 2.19372,0.40291 0.62327,0.26853 1.14776,0.66393 1.57334,1.18652 0.12151,0.14904 0.23462,0.30583 0.33922,0.47033 0.10466,-0.1645 0.21771,-0.32129 0.33929,-0.47033 0.42551,-0.52259 0.95,-0.91799 1.57327,-1.18652 0.62334,-0.26859 1.35431,-0.40291 2.1934,-0.40291 z"
         transform="matrix(1.5842084,0,0,1.5842084,1281.8721,521.32473)" /><path
         id="text8-8-9-4-9-6-0-8-9-9-6-6-1-4-0-7-8-5-9-24-1-0-8-6-2-9-7-4-2-0-8-8-3-5-2-3"
         style="font-size:74.0297px;font-family:Verdana;-inkscape-font-specification:Verdana;text-align:center;text-anchor:middle;fill:#ffca75;fill-opacity:1;stroke-width:0.858208;stroke-linecap:round;stroke-linejoin:round;paint-order:stroke markers fill"
         d="m 379.18002,686.58976 c -0.96843,0 -1.81232,0.13401 -2.53173,0.40254 -0.64632,0.24125 -1.20054,0.58502 -1.6626,1.0313 v 1.9e-4 c -0.0524,0.0505 -0.10333,0.10213 -0.15326,0.15522 -0.56028,0.59512 -0.96484,1.31359 -1.21392,2.15552 -0.49009,1.70414 -0.48971,3.33953 0.006,5.06045 0.24902,0.84194 0.65358,1.56066 1.21386,2.15585 0.0499,0.053 0.10099,0.10472 0.15326,0.15521 0.46206,0.44622 1.01628,0.78999 1.66259,1.03125 0.71942,0.26852 1.56331,0.40259 2.53174,0.40259 0.9685,0 1.81239,-0.13407 2.5318,-0.40259 0.64632,-0.24126 1.20054,-0.58503 1.6626,-1.03125 0.0524,-0.0505 0.10333,-0.10213 0.1532,-0.15521 0.56034,-0.59519 0.9649,-1.31391 1.21392,-2.15585 0.49495,-1.72092 0.48491,-3.35631 -0.006,-5.06045 -0.24902,-0.84193 -0.65358,-1.5604 -1.21392,-2.15552 -0.0499,-0.053 -0.10094,-0.10479 -0.1532,-0.15522 0,-6e-5 0,-1.9e-4 0,-1.9e-4 -0.46206,-0.44628 -1.01628,-0.79005 -1.6626,-1.0313 -0.71941,-0.26853 -1.5633,-0.40254 -2.5318,-0.40254 z m 0,1.85051 c 0.7333,0 1.36264,0.11988 1.88839,0.35943 0.51887,0.23949 0.93056,0.59487 1.23494,1.06665 0.26979,0.41371 0.46358,0.87482 0.58117,1.3829 0.0697,0.3201 0.11735,1.06211 0.11735,1.57019 0,0.50808 -0.0423,1.34124 -0.11217,1.66133 -0.1176,0.50802 -0.31139,0.96888 -0.58117,1.38259 -0.30432,0.47172 -0.71607,0.82716 -1.23488,1.06665 -0.52575,0.23949 -1.15515,0.35942 -1.88845,0.35942 -0.73324,0 -1.36264,-0.11993 -1.88839,-0.35942 -0.51881,-0.23949 -0.93056,-0.59493 -1.23487,-1.06665 -0.26979,-0.41371 -0.46358,-0.87457 -0.58124,-1.38259 -0.0697,-0.32009 -0.12277,-1.15325 -0.12277,-1.66133 0,-0.50808 0.048,-1.25009 0.11759,-1.57019 0.1176,-0.50808 0.31139,-0.96919 0.58118,-1.3829 0.30438,-0.47178 0.71613,-0.82716 1.23494,-1.06665 0.52575,-0.23955 1.15515,-0.35943 1.88838,-0.35943 z"
         sodipodi:nodetypes="ssccccccsssssccccccssscccccccscccccccs"
         transform="matrix(1.5842084,0,0,1.5842084,1281.8721,521.32473)" /><ellipse
         style="fill:#ffca75;fill-opacity:1;stroke:none;stroke-width:0.4108;stroke-linecap:round;stroke-linejoin:round;stroke-dasharray:none;stroke-opacity:1;paint-order:stroke markers fill"
         id="path12-3-5-5-1-5-7-9-0-1-3-3-1-8-19-0-2-3-9-3-5-9-7-7-9-2-6-0-7-4"
         cx="369.44858"
         cy="684.1098"
         rx="1.1300159"
         ry="1.1494859"
         transform="matrix(1.5842084,0,0,1.5842084,1281.8721,521.32473)" /><g
         id="g6-2-8-4-5-2"
         transform="translate(304.28406,848.74984)"><path
           id="text8-8-9-4-9-6-0-8-9-9-6-6-1-4-0-7-8-5-9-24-1-0-8-6-2-9-7-4-5-1-5-8-9-1-9-6-3-5-1-8"
           style="font-size:74.0297px;font-family:Verdana;-inkscape-font-specification:Verdana;text-align:center;text-anchor:middle;fill:#ffca75;fill-opacity:1;stroke-width:1.96252;stroke-linecap:round;stroke-linejoin:round;paint-order:stroke markers fill"
           d="m 1445.0571,754.45598 c -2.2146,0 -4.1444,0.30657 -5.7895,0.92062 -1.478,0.5517 -2.7454,1.33772 -3.802,2.35823 v 4.6e-4 c -0.1197,0.11548 -0.2363,0.23353 -0.3504,0.35495 -1.2813,1.36093 -2.2064,3.00393 -2.7759,4.92915 -1.1207,3.89694 -1.1199,7.63669 0.012,11.57208 0.5695,1.92524 1.4946,3.56889 2.7759,4.9298 0.1141,0.1214 0.2309,0.23953 0.3504,0.35496 1.0566,1.02052 2.324,1.80654 3.802,2.35823 1.6451,0.61406 3.5749,0.92061 5.7895,0.92061 2.2147,0 4.1444,-0.30655 5.7896,-0.92061 1.478,-0.55169 2.7453,-1.33771 3.802,-2.35823 0.1196,-0.11549 0.2362,-0.23353 0.3503,-0.35496 1.2814,-1.36091 2.2064,-3.00456 2.7759,-4.9298 1.1318,-3.93539 1.1089,-7.67514 -0.012,-11.57208 -0.5695,-1.92522 -1.4945,-3.56822 -2.7759,-4.92915 -0.114,-0.1214 -0.2308,-0.23951 -0.3503,-0.35495 0,-1.6e-4 -10e-5,-4.6e-4 0,-4.6e-4 -1.0567,-1.02051 -2.324,-1.80653 -3.802,-2.35823 -1.6452,-0.61405 -3.5749,-0.92062 -5.7896,-0.92062 z"
           sodipodi:nodetypes="ssccccccsssssccccccsss" /><path
           id="path10-9-0-0-0-4-6-5-7-3-1-7-8-2-1-5-4-5-0-2-2-5-1-6-2-9-8-4-2-9-6-6-2-5-7-0-3-8"
           style="font-size:74.0297px;font-family:Verdana;-inkscape-font-specification:Verdana;text-align:center;text-anchor:middle;fill:#0d0d29;fill-opacity:1;stroke-width:1.82677;stroke-linecap:round;stroke-linejoin:round;paint-order:stroke markers fill"
           d="m 1436.5853,765.1111 c -0.1594,0.73205 -0.2685,2.42914 -0.2685,3.59094 0,0.21129 0,0.44702 0.012,0.69596 0.9156,0.11692 1.7332,0.36462 2.4527,0.74294 1.0278,0.54773 1.8443,1.36111 2.4474,2.43996 0.5345,0.94607 0.9179,2.00018 1.1509,3.16201 0.1148,0.60767 0.1998,1.88025 0.2544,2.95614 0.747,0.14984 1.5587,0.22453 2.4355,0.22453 0.8674,0 1.6712,-0.0733 2.4116,-0.22006 0.055,-1.07664 0.1396,-2.35152 0.2543,-2.95987 0.233,-1.16183 0.6165,-2.21595 1.151,-3.16201 0.6031,-1.07887 1.4195,-1.89222 2.4474,-2.43995 0.72,-0.37859 1.5379,-0.62618 2.4542,-0.74296 0.01,-0.24926 0.01,-0.48514 0.01,-0.69669 0,-1.16182 -0.1084,-2.85892 -0.2678,-3.59094 -1.5388,0.0838 -2.905,0.38256 -4.0982,0.89662 -1.4254,0.61414 -2.6245,1.51868 -3.5976,2.71371 -0.278,0.34073 -0.5365,0.69953 -0.7758,1.07565 -0.2392,-0.37612 -0.4979,-0.73492 -0.7758,-1.07565 -0.9731,-1.19503 -2.1722,-2.09957 -3.5976,-2.71371 -1.1931,-0.514 -2.5595,-0.81278 -4.0982,-0.89662 z"
           sodipodi:nodetypes="cscccccscccccscscccscc" /><ellipse
           style="fill:#0d0d29;fill-opacity:1;stroke:none;stroke-width:0.939398;stroke-linecap:round;stroke-linejoin:round;stroke-dasharray:none;stroke-opacity:1;paint-order:stroke markers fill"
           id="path12-3-5-5-1-5-7-9-0-1-3-3-1-8-19-0-2-3-9-3-5-9-5-6-0-3-4-5-7-1-1-9-7"
           cx="1445.0626"
           cy="763.06976"
           rx="2.5840733"
           ry="2.6285968" /></g></g><path
       id="text8-8-9-1-3-1-0-0-8-2-5-8-32-8-5-0-7-3-7-4-6-1-1-8"
       style="font-size:74.0297px;font-family:Verdana;-inkscape-font-specification:Verdana;text-align:center;text-anchor:middle;fill:#ffffff;fill-opacity:1;stroke-width:1.38103;stroke-linecap:round;stroke-linejoin:round;paint-order:stroke markers fill"
       d="m 68.5717,214.8996 c -0.8265,0 -1.6531,0.6101 -1.6531,1.8301 v 4.1556 2.4195 c 0,0 0,0.01 0,0.011 V 240.66 c 0,2.44 3.3061,2.44 3.3061,0 v -17.3558 -2.4195 -4.1556 c 0,-1.22 -0.8265,-1.8301 -1.653,-1.8301 z"
       sodipodi:nodetypes="sscccssccsss" /></g></svg>
