<?xml version="1.0" encoding="UTF-8" standalone="no"?>
<svg
   xmlns:dc="http://purl.org/dc/elements/1.1/"
   xmlns:cc="http://creativecommons.org/ns#"
   xmlns:rdf="http://www.w3.org/1999/02/22-rdf-syntax-ns#"
   xmlns:svg="http://www.w3.org/2000/svg"
   xmlns="http://www.w3.org/2000/svg"
   id="svg5724"
   version="1.1"
   viewBox="0 0 171.97917 32.407963"
   height="32.407963mm"
   width="171.97917mm">
  <defs
     id="defs5718" />
  <metadata
     id="metadata5721">
    <rdf:RDF>
      <cc:Work
         rdf:about="">
        <dc:format>image/svg+xml</dc:format>
        <dc:type
           rdf:resource="http://purl.org/dc/dcmitype/StillImage" />
        <dc:title></dc:title>
      </cc:Work>
    </rdf:RDF>
  </metadata>
  <g
     transform="translate(-41.427956,-107.0763)"
     id="layer1">
    <g
       transform="matrix(3.2317473,0,0,3.2317473,-92.456697,-311.29352)"
       id="g5754">
      <path
         d="m 86.866958,136.01558 c 0,1.00506 -0.814564,1.81963 -1.819626,1.81963 -1.005065,0 -1.81963,-0.81457 -1.81963,-1.81963 0,-1.00506 0.814565,-1.81963 1.81963,-1.81963 1.005062,0 1.819626,0.81457 1.819626,1.81963"
         style="fill:#00d282;fill-opacity:1;fill-rule:nonzero;stroke:none;stroke-width:0.35277775"
         id="path5432" />
      <path
         d="m 93.397473,133.52769 c -0.288925,-0.2286 -0.97155,-0.76341 -2.235906,-0.74966 -0.408517,0.004 -0.710846,0.0632 -0.893234,0.11184 l 0.151342,-1.5106 h 3.571523 v -1.64853 h -5.082823 l -0.618067,5.09658 1.32574,0.13511 c 0.497417,-0.40816 1.03011,-0.52316 1.414992,-0.52528 0.435681,-0.003 0.859718,0.12206 1.167341,0.387 0.346782,0.2988 0.59055,0.71543 0.59055,1.26717 0,1.03011 -0.892526,1.74414 -1.799518,1.74414 -0.727782,0 -1.387123,-0.39794 -1.785763,-0.96132 l -1.332442,1.11266 c 0.851959,0.96167 1.991784,1.49719 3.186997,1.49719 1.991783,0 3.585278,-1.35996 3.585278,-3.39267 0,-1.05798 -0.478366,-1.9565 -1.24601,-2.56363"
         style="fill:#232323;fill-opacity:1;fill-rule:nonzero;stroke:none;stroke-width:0.35277775"
         id="path5436" />
      <path
         d="m 60.532133,139.34679 v -6.66256 h 1.716969 v 0.53587 c 0.508353,-0.41205 1.140178,-0.6731 1.882069,-0.6731 0.920397,0 1.758245,0.4124 2.307872,1.07138 0.439562,0.52212 0.686506,1.19522 0.686506,2.33539 v 3.39302 h -1.785761 v -3.53025 c 0,-0.65934 -0.150989,-1.00294 -0.398286,-1.25024 -0.233539,-0.23354 -0.59055,-0.37112 -1.002595,-0.37112 -0.75565,0 -1.373716,0.48119 -1.621013,0.82444 v 4.32717 z"
         style="fill:#232323;fill-opacity:1;fill-rule:nonzero;stroke:none;stroke-width:0.35277775"
         id="path5440" />
      <path
         d="m 79.713366,135.15706 c -0.05503,-0.59055 -0.59055,-1.16769 -1.318683,-1.16769 -0.741892,0 -1.3462,0.56338 -1.42875,1.16769 z m 1.661935,3.13196 c -0.645583,0.76941 -1.70321,1.19521 -2.73332,1.19521 -1.992138,0 -3.489325,-1.37371 -3.489325,-3.46181 0,-1.85455 1.264002,-3.47521 3.242027,-3.47521 1.840441,0 3.145718,1.55187 3.145718,3.40642 0,0.17886 -0.01376,0.35737 -0.04127,0.50836 H 76.88374 c 0.09596,0.93415 0.851606,1.57973 1.799521,1.57973 0.755295,0 1.359958,-0.4258 1.675693,-0.76905 z"
         style="fill:#232323;fill-opacity:1;fill-rule:nonzero;stroke:none;stroke-width:0.35277775"
         id="path5444" />
      <path
         d="m 57.293916,135.01976 c -0.371123,-0.49459 -0.961673,-0.82409 -1.648531,-0.82409 -1.043869,0 -1.717322,0.86537 -1.717322,1.82668 0,1.04423 0.756003,1.81328 1.758597,1.81328 0.6731,0 1.26365,-0.32949 1.607256,-0.82409 z m 1.785761,4.32717 h -1.71697 v -0.53587 c -0.549628,0.46708 -1.181453,0.6731 -1.854553,0.6731 -0.989188,0 -1.923344,-0.43956 -2.513894,-1.12642 -0.522111,-0.6043 -0.851958,-1.42839 -0.851958,-2.33539 0,-1.96426 1.456266,-3.47521 3.269544,-3.47521 0.75565,0 1.42875,0.24695 1.950861,0.6731 v -0.53587 h 1.71697 z"
         style="fill:#232323;fill-opacity:1;fill-rule:nonzero;stroke:none;stroke-width:0.35277775"
         id="path5448" />
      <path
         d="m 74.743819,137.98687 c -0.782815,1.04387 -1.772002,1.49719 -3.021894,1.49719 -2.060575,0 -3.571523,-1.53847 -3.571523,-3.46146 0,-1.9371 1.551869,-3.47556 3.584927,-3.47556 1.153938,0 2.1844,0.53587 2.802467,1.33244 l -1.264002,1.11266 c -0.35701,-0.46708 -0.892527,-0.79693 -1.538465,-0.79693 -1.03011,0 -1.799166,0.81069 -1.799166,1.82739 0,1.04387 0.755298,1.81293 1.840441,1.81293 0.728134,0 1.30528,-0.43921 1.593498,-0.87877 z"
         style="fill:#232323;fill-opacity:1;fill-rule:nonzero;stroke:none;stroke-width:0.35277775"
         id="path5452" />
      <path
         d="m 51.867875,134.26408 c -0.123825,-0.0413 -0.384528,-0.0688 -0.645583,-0.0688 -0.782814,0 -1.401234,0.56339 -1.621014,0.96168 v 4.18994 h -1.785761 v -6.66256 h 1.717322 v 0.6731 c 0.398286,-0.4946 1.126419,-0.81033 1.93675,-0.81033 0.261056,0 0.412044,0.0272 0.604308,0.055 z"
         style="fill:#232323;fill-opacity:1;fill-rule:nonzero;stroke:none;stroke-width:0.35277775"
         id="path5456" />
      <path
         d="m 46.716437,131.10477 c -0.150989,-0.0413 -0.370769,-0.0688 -0.535869,-0.0688 -0.439561,0 -0.782814,0.12383 -1.002595,0.38488 -0.151341,0.19191 -0.247297,0.43956 -0.247297,1.05763 v 0.20602 h 2.060575 v 1.51095 h -2.060575 v 5.15126 h -1.785761 v -5.15126 h -1.716969 v -1.51095 h 1.716969 v -0.27481 c 0,-1.07139 0.247297,-1.71697 0.714375,-2.17064 0.467078,-0.45297 1.167342,-0.78282 2.073981,-0.78282 0.357363,0 0.687211,0.0275 1.05798,0.12383 z"
         style="fill:#232323;fill-opacity:1;fill-rule:nonzero;stroke:none;stroke-width:0.35277775"
         id="path5460" />
    </g>
  </g>
</svg>
